<mxfile host="app.diagrams.net" modified="2022-04-04T16:25:51.532Z" agent="5.0 (X11; Linux x86_64) AppleWebKit/537.36 (KHTML, like Gecko) Chrome/99.0.4844.82 Safari/537.36" etag="bjOQrfQ3DLhl6rC6W-a7" version="17.4.0" type="github">
  <diagram id="C5RBs43oDa-KdzZeNtuy" name="Page-1">
    <mxGraphModel dx="1418" dy="743" grid="1" gridSize="10" guides="1" tooltips="1" connect="1" arrows="1" fold="1" page="1" pageScale="1" pageWidth="1169" pageHeight="1654" math="0" shadow="0">
      <root>
        <mxCell id="WIyWlLk6GJQsqaUBKTNV-0" />
        <mxCell id="WIyWlLk6GJQsqaUBKTNV-1" parent="WIyWlLk6GJQsqaUBKTNV-0" />
        <mxCell id="Or5xMmGlH_DIaF3GOCbk-1" value="" style="edgeStyle=orthogonalEdgeStyle;rounded=0;orthogonalLoop=1;jettySize=auto;html=1;" parent="WIyWlLk6GJQsqaUBKTNV-1" source="WIyWlLk6GJQsqaUBKTNV-3" target="Or5xMmGlH_DIaF3GOCbk-0" edge="1">
          <mxGeometry relative="1" as="geometry" />
        </mxCell>
        <mxCell id="WIyWlLk6GJQsqaUBKTNV-3" value="Need for dev&lt;br&gt;- New fcts&lt;br&gt;- bugs need fix&lt;br&gt;- ..." style="rounded=1;whiteSpace=wrap;html=1;fontSize=12;glass=0;strokeWidth=1;shadow=0;" parent="WIyWlLk6GJQsqaUBKTNV-1" vertex="1">
          <mxGeometry x="40" y="10" width="120" height="90" as="geometry" />
        </mxCell>
        <mxCell id="Or5xMmGlH_DIaF3GOCbk-3" value="" style="edgeStyle=orthogonalEdgeStyle;rounded=0;orthogonalLoop=1;jettySize=auto;html=1;" parent="WIyWlLk6GJQsqaUBKTNV-1" source="Or5xMmGlH_DIaF3GOCbk-0" target="Or5xMmGlH_DIaF3GOCbk-2" edge="1">
          <mxGeometry relative="1" as="geometry" />
        </mxCell>
        <mxCell id="Or5xMmGlH_DIaF3GOCbk-24" value="" style="edgeStyle=orthogonalEdgeStyle;rounded=0;orthogonalLoop=1;jettySize=auto;html=1;" parent="WIyWlLk6GJQsqaUBKTNV-1" source="Or5xMmGlH_DIaF3GOCbk-0" target="Or5xMmGlH_DIaF3GOCbk-23" edge="1">
          <mxGeometry relative="1" as="geometry" />
        </mxCell>
        <mxCell id="Or5xMmGlH_DIaF3GOCbk-0" value="Specify / CdC&lt;br&gt;&quot;Stories&quot;&lt;br&gt;Requirements" style="rounded=1;whiteSpace=wrap;html=1;fontSize=12;glass=0;strokeWidth=1;shadow=0;" parent="WIyWlLk6GJQsqaUBKTNV-1" vertex="1">
          <mxGeometry x="80" y="130" width="120" height="70" as="geometry" />
        </mxCell>
        <mxCell id="Or5xMmGlH_DIaF3GOCbk-5" value="" style="edgeStyle=orthogonalEdgeStyle;rounded=0;orthogonalLoop=1;jettySize=auto;html=1;" parent="WIyWlLk6GJQsqaUBKTNV-1" source="Or5xMmGlH_DIaF3GOCbk-2" target="Or5xMmGlH_DIaF3GOCbk-4" edge="1">
          <mxGeometry relative="1" as="geometry" />
        </mxCell>
        <mxCell id="Or5xMmGlH_DIaF3GOCbk-2" value="Design...&lt;br&gt;Split Requirement in tasks..." style="rounded=1;whiteSpace=wrap;html=1;fontSize=12;glass=0;strokeWidth=1;shadow=0;" parent="WIyWlLk6GJQsqaUBKTNV-1" vertex="1">
          <mxGeometry x="140" y="240" width="140" height="70" as="geometry" />
        </mxCell>
        <mxCell id="Or5xMmGlH_DIaF3GOCbk-7" value="" style="edgeStyle=orthogonalEdgeStyle;rounded=0;orthogonalLoop=1;jettySize=auto;html=1;" parent="WIyWlLk6GJQsqaUBKTNV-1" source="Or5xMmGlH_DIaF3GOCbk-4" target="Or5xMmGlH_DIaF3GOCbk-6" edge="1">
          <mxGeometry relative="1" as="geometry" />
        </mxCell>
        <mxCell id="Or5xMmGlH_DIaF3GOCbk-4" value="Dev / Debug" style="rounded=1;whiteSpace=wrap;html=1;fontSize=12;glass=0;strokeWidth=1;shadow=0;" parent="WIyWlLk6GJQsqaUBKTNV-1" vertex="1">
          <mxGeometry x="210" y="360" width="130" height="50" as="geometry" />
        </mxCell>
        <mxCell id="Or5xMmGlH_DIaF3GOCbk-9" value="" style="edgeStyle=orthogonalEdgeStyle;rounded=0;orthogonalLoop=1;jettySize=auto;html=1;" parent="WIyWlLk6GJQsqaUBKTNV-1" source="Or5xMmGlH_DIaF3GOCbk-6" target="Or5xMmGlH_DIaF3GOCbk-8" edge="1">
          <mxGeometry relative="1" as="geometry" />
        </mxCell>
        <mxCell id="Or5xMmGlH_DIaF3GOCbk-6" value="Code Review&lt;br&gt;+ dev tests" style="rounded=1;whiteSpace=wrap;html=1;fontSize=12;glass=0;strokeWidth=1;shadow=0;" parent="WIyWlLk6GJQsqaUBKTNV-1" vertex="1">
          <mxGeometry x="380" y="360" width="130" height="50" as="geometry" />
        </mxCell>
        <mxCell id="Or5xMmGlH_DIaF3GOCbk-11" value="" style="edgeStyle=orthogonalEdgeStyle;rounded=0;orthogonalLoop=1;jettySize=auto;html=1;" parent="WIyWlLk6GJQsqaUBKTNV-1" source="Or5xMmGlH_DIaF3GOCbk-8" target="Or5xMmGlH_DIaF3GOCbk-10" edge="1">
          <mxGeometry relative="1" as="geometry" />
        </mxCell>
        <mxCell id="Or5xMmGlH_DIaF3GOCbk-8" value="Automatic Test&lt;br&gt;CI / CD" style="rounded=1;whiteSpace=wrap;html=1;fontSize=12;glass=0;strokeWidth=1;shadow=0;" parent="WIyWlLk6GJQsqaUBKTNV-1" vertex="1">
          <mxGeometry x="540" y="360" width="130" height="50" as="geometry" />
        </mxCell>
        <mxCell id="Or5xMmGlH_DIaF3GOCbk-13" value="" style="edgeStyle=orthogonalEdgeStyle;rounded=0;orthogonalLoop=1;jettySize=auto;html=1;entryX=0.25;entryY=0;entryDx=0;entryDy=0;" parent="WIyWlLk6GJQsqaUBKTNV-1" source="Or5xMmGlH_DIaF3GOCbk-10" target="Or5xMmGlH_DIaF3GOCbk-12" edge="1">
          <mxGeometry relative="1" as="geometry" />
        </mxCell>
        <mxCell id="Or5xMmGlH_DIaF3GOCbk-10" value="Generate Version" style="rounded=1;whiteSpace=wrap;html=1;fontSize=12;glass=0;strokeWidth=1;shadow=0;" parent="WIyWlLk6GJQsqaUBKTNV-1" vertex="1">
          <mxGeometry x="700" y="360" width="130" height="50" as="geometry" />
        </mxCell>
        <mxCell id="Or5xMmGlH_DIaF3GOCbk-15" value="" style="edgeStyle=orthogonalEdgeStyle;rounded=0;orthogonalLoop=1;jettySize=auto;html=1;" parent="WIyWlLk6GJQsqaUBKTNV-1" source="Or5xMmGlH_DIaF3GOCbk-12" target="Or5xMmGlH_DIaF3GOCbk-14" edge="1">
          <mxGeometry relative="1" as="geometry" />
        </mxCell>
        <mxCell id="Or5xMmGlH_DIaF3GOCbk-12" value="Test version&lt;br&gt;(validation team..., user, ...)" style="rounded=1;whiteSpace=wrap;html=1;fontSize=12;glass=0;strokeWidth=1;shadow=0;" parent="WIyWlLk6GJQsqaUBKTNV-1" vertex="1">
          <mxGeometry x="760" y="440" width="130" height="50" as="geometry" />
        </mxCell>
        <mxCell id="Or5xMmGlH_DIaF3GOCbk-17" value="Yes" style="edgeStyle=orthogonalEdgeStyle;rounded=0;orthogonalLoop=1;jettySize=auto;html=1;" parent="WIyWlLk6GJQsqaUBKTNV-1" source="Or5xMmGlH_DIaF3GOCbk-14" target="Or5xMmGlH_DIaF3GOCbk-16" edge="1">
          <mxGeometry relative="1" as="geometry" />
        </mxCell>
        <mxCell id="Or5xMmGlH_DIaF3GOCbk-20" value="No" style="edgeStyle=orthogonalEdgeStyle;rounded=0;orthogonalLoop=1;jettySize=auto;html=1;exitX=0;exitY=0.5;exitDx=0;exitDy=0;entryX=0;entryY=0.5;entryDx=0;entryDy=0;" parent="WIyWlLk6GJQsqaUBKTNV-1" source="Or5xMmGlH_DIaF3GOCbk-14" target="Or5xMmGlH_DIaF3GOCbk-4" edge="1">
          <mxGeometry relative="1" as="geometry" />
        </mxCell>
        <mxCell id="Or5xMmGlH_DIaF3GOCbk-14" value="All Requirement&amp;nbsp; are Implemented ?" style="rhombus;whiteSpace=wrap;html=1;rounded=1;glass=0;strokeWidth=1;shadow=0;" parent="WIyWlLk6GJQsqaUBKTNV-1" vertex="1">
          <mxGeometry x="735" y="510" width="180" height="80" as="geometry" />
        </mxCell>
        <mxCell id="Or5xMmGlH_DIaF3GOCbk-19" value="Yes" style="edgeStyle=orthogonalEdgeStyle;rounded=0;orthogonalLoop=1;jettySize=auto;html=1;" parent="WIyWlLk6GJQsqaUBKTNV-1" source="Or5xMmGlH_DIaF3GOCbk-16" target="Or5xMmGlH_DIaF3GOCbk-18" edge="1">
          <mxGeometry relative="1" as="geometry" />
        </mxCell>
        <mxCell id="Or5xMmGlH_DIaF3GOCbk-22" value="No" style="edgeStyle=orthogonalEdgeStyle;rounded=0;orthogonalLoop=1;jettySize=auto;html=1;exitX=0;exitY=0.5;exitDx=0;exitDy=0;entryX=0;entryY=0.75;entryDx=0;entryDy=0;" parent="WIyWlLk6GJQsqaUBKTNV-1" source="Or5xMmGlH_DIaF3GOCbk-16" target="Or5xMmGlH_DIaF3GOCbk-4" edge="1">
          <mxGeometry relative="1" as="geometry" />
        </mxCell>
        <mxCell id="Or5xMmGlH_DIaF3GOCbk-16" value="Debug Finished" style="rhombus;whiteSpace=wrap;html=1;rounded=1;glass=0;strokeWidth=1;shadow=0;" parent="WIyWlLk6GJQsqaUBKTNV-1" vertex="1">
          <mxGeometry x="735" y="630" width="180" height="80" as="geometry" />
        </mxCell>
        <mxCell id="Or5xMmGlH_DIaF3GOCbk-18" value="Deploy Release" style="whiteSpace=wrap;html=1;rounded=1;glass=0;strokeWidth=1;shadow=0;" parent="WIyWlLk6GJQsqaUBKTNV-1" vertex="1">
          <mxGeometry x="860" y="750" width="120" height="60" as="geometry" />
        </mxCell>
        <mxCell id="Or5xMmGlH_DIaF3GOCbk-25" style="edgeStyle=orthogonalEdgeStyle;rounded=0;orthogonalLoop=1;jettySize=auto;html=1;exitX=1;exitY=0.5;exitDx=0;exitDy=0;entryX=0.75;entryY=0;entryDx=0;entryDy=0;" parent="WIyWlLk6GJQsqaUBKTNV-1" source="Or5xMmGlH_DIaF3GOCbk-23" target="Or5xMmGlH_DIaF3GOCbk-12" edge="1">
          <mxGeometry relative="1" as="geometry" />
        </mxCell>
        <mxCell id="Or5xMmGlH_DIaF3GOCbk-23" value="Define tests for each requirement&lt;br&gt;+ Tests cases (user scenarii)" style="rounded=1;whiteSpace=wrap;html=1;fontSize=12;glass=0;strokeWidth=1;shadow=0;" parent="WIyWlLk6GJQsqaUBKTNV-1" vertex="1">
          <mxGeometry x="280" y="130" width="120" height="70" as="geometry" />
        </mxCell>
      </root>
    </mxGraphModel>
  </diagram>
</mxfile>
